<?xml version="1.0" encoding="UTF-8"?>
<svg xmlns="http://www.w3.org/2000/svg" width="80" height="80" viewBox="0 0 80 80" fill="none">
  <path d="M48.4146 23.554C46.6795 21.8188 46.6795 19.0054 48.4146 17.2702L53.5373 12.1476C55.2725 10.4124 58.0859 10.4124 59.8211 12.1476C61.5562 13.8827 61.5562 16.6962 59.8211 18.4313L54.6984 23.554C52.9631 25.2891 50.1498 25.2891 48.4146 23.554Z" fill="#FFD5AD"></path>
  <path d="M48.4146 67.8523C46.6795 66.1171 46.6795 63.3037 48.4146 61.5686L53.5373 56.4459C55.2725 54.7107 58.0859 54.7107 59.8211 56.4459C61.5562 58.1811 61.5562 60.9945 59.8211 62.7296L54.6984 67.8523C52.9631 69.5875 50.1498 69.5875 48.4146 67.8523Z" fill="#FFD5AD"></path>
  <path d="M20.1783 23.554C18.4432 21.8188 18.4432 19.0054 20.1783 17.2702L25.301 12.1476C27.0361 10.4124 29.8496 10.4124 31.5847 12.1476C33.3199 13.8827 33.3199 16.6962 31.5847 18.4313L26.4621 23.554C24.7269 25.2891 21.9135 25.2891 20.1783 23.554Z" fill="#FFD5AD"></path>
  <path d="M20.1783 67.8523C18.4432 66.1171 18.4432 63.3037 20.1783 61.5686L25.301 56.4459C27.0361 54.7107 29.8496 54.7107 31.5847 56.4459C33.3199 58.1811 33.3199 60.9945 31.5847 62.7296L26.4621 67.8523C24.7269 69.5875 21.9135 69.5875 20.1783 67.8523Z" fill="#FFD5AD"></path>
  <path d="M63.8544 0H16.1447C13.231 0 10.8604 2.37047 10.8604 5.28422V74.7156C10.8604 77.6294 13.2308 79.9998 16.1447 79.9998H63.8544C66.7682 79.9998 69.1388 77.6294 69.1388 74.7156V5.28422C69.1388 2.37047 66.7682 0 63.8544 0ZM66.0138 74.7158C66.0138 75.9064 65.045 76.875 63.8544 76.875H16.1447C14.9541 76.875 13.9854 75.9064 13.9854 74.7158V5.28422C13.9854 4.09359 14.9541 3.125 16.1447 3.125H63.8544C65.045 3.125 66.0138 4.09359 66.0138 5.28422V74.7158Z" fill="#E27914"></path>
  <path d="M40 12.1021C39.137 12.1021 38.4375 12.8017 38.4375 13.6646V66.3358C38.4375 67.1986 39.137 67.8983 40 67.8983C40.863 67.8983 41.5625 67.1986 41.5625 66.3358V13.6646C41.5625 12.8017 40.863 12.1021 40 12.1021Z" fill="#E27914"></path>
  <path d="M56.6792 31.4326C55.075 31.4326 53.5669 32.0573 52.4325 33.1917L47.3098 38.3145C46.1755 39.4489 45.5508 40.957 45.5508 42.5612C45.5508 44.1656 46.1755 45.6737 47.3098 46.8081C48.4442 47.9425 49.9523 48.5671 51.5566 48.5671C53.1608 48.5671 54.6689 47.9425 55.8033 46.8081L60.9259 41.6853C62.0603 40.5509 62.685 39.0428 62.685 37.4386C62.685 35.8342 62.0603 34.3261 60.9259 33.1917C59.7916 32.0573 58.2834 31.4326 56.6792 31.4326ZM51.5566 45.442C50.787 45.442 50.0636 45.1423 49.5195 44.5982C48.9755 44.0542 48.6758 43.3307 48.6758 42.5612C48.6758 41.7917 48.9753 41.0682 49.5195 40.5243L50.9761 39.0678L55.05 43.1417L53.5936 44.5982C53.0495 45.1423 52.3259 45.442 51.5566 45.442ZM58.7162 39.4754L57.2598 40.932L53.1859 36.8581L54.6423 35.4017C55.1864 34.8576 55.9098 34.5579 56.6794 34.5579C57.4489 34.5579 58.1723 34.8576 58.7164 35.4017C59.2605 35.9457 59.5602 36.6692 59.5602 37.4387C59.5602 38.2082 59.2605 38.9312 58.7162 39.4754Z" fill="#E27914"></path>
  <path d="M28.4429 31.4326C26.8387 31.4326 25.3305 32.0573 24.1962 33.1917L21.6365 35.7515C21.636 35.752 21.6355 35.7525 21.6349 35.7531C21.6343 35.7537 21.634 35.7542 21.6334 35.7546L19.0735 38.3146C17.9391 39.449 17.3145 40.9572 17.3145 42.5614C17.3145 44.1657 17.9391 45.6739 19.0735 46.8082C20.2079 47.9426 21.7162 48.5673 23.3202 48.5673C24.9243 48.5673 26.4326 47.9426 27.567 46.8082L32.6896 41.6854C33.824 40.5511 34.4487 39.0429 34.4487 37.4387C34.4487 35.8343 33.824 34.3262 32.6896 33.1918C31.5552 32.0575 30.0471 31.4326 28.4429 31.4326ZM23.3202 45.442C22.5507 45.442 21.8273 45.1423 21.2832 44.5982C20.7391 44.0542 20.4395 43.3307 20.4395 42.5612C20.4395 41.7917 20.739 41.0684 21.2832 40.5243L22.7398 39.0678L26.8137 43.1417L25.3573 44.5982C24.8132 45.1423 24.0898 45.442 23.3202 45.442ZM30.4799 39.4754L29.0234 40.932L24.9495 36.8581L26.4059 35.4015C26.9499 34.8575 27.6734 34.5578 28.4429 34.5578C29.2124 34.5578 29.9359 34.8575 30.4799 35.4015C31.024 35.9456 31.3237 36.669 31.3237 37.4386C31.3237 38.2081 31.0241 38.9314 30.4799 39.4754Z" fill="#E27914"></path>
</svg>
